<?xml version="1.0" encoding="UTF-8"?>
<svg id="Layer_2" data-name="Layer 2" xmlns="http://www.w3.org/2000/svg" viewBox="0 0 122.83 59.73">
  <defs>
    <style>
      .cls-1 {
        fill: #fc2887;
      }

      .cls-2 {
        fill: #fff;
      }
    </style>
  </defs>
  <g id="Layer_14" data-name="Layer 14">
    <g>
      <path class="cls-1" d="M5.83,48.69c.48,1.83,1.52,4.79,3.11,5.88.93.63,1.84.3,2.44-.59,1.05-1.54,1.81-4.08,2.26-5.91.42-1.71.83-3.36,1.09-5.1l.79-5.26.86-7.03-.56-2.82c-.55-2.77-.82-5.56-.82-8.39,0-1.73.23-3.38.77-5,.4-1.2,1.03-2.26,1.95-3.11.29-.27.63-.49.99-.61,1.16-.35,1.68.99,1.8,1.87.4,2.92.25,8.73.05,11.78l-.3,4.56c.18,4.95.68,9.64,1.82,14.46.53,2.24,1.74,6.57,3.57,7.99.95.74,1.97-.03,2.54-.83,1.79-2.53,2.77-7.89,3.22-10.99.88-6.13,1.28-13.31.64-19.46-.35-3.32-1.02-6.57-1.96-9.77-.35-1.19-.77-2.28-1.28-3.4.83-1.12,3.79-2.65,5.14-2.57.4.62.64,1.23.87,1.92.48,1.47.86,2.93,1.07,4.48.96,7.11,1.13,14.29.51,21.45-.42,4.76-1.28,9.66-2.72,14.2-.93,2.96-2.8,7.7-5.54,9.36-.91.55-1.97.75-2.99.46-1.51-.44-2.8-2.31-3.53-3.64-1.66-3.16-2.43-6.51-3.17-10.02-.91,4.66-2.45,11.53-5.48,15.27-.46.56-.97,1.03-1.59,1.38-1.69.97-3.39.34-4.73-.87-1.44-1.3-2.55-3.32-3.3-5.12-.85-2.03-1.5-4.09-1.97-6.26-.7-3.19-1.17-6.42-1.32-9.71-.18-4.2-.05-8.39.36-12.57.37-3.77.89-7.49,1.56-11.21.07-.38.45-.68.73-.9,1.28-1.02,2.85-1.58,4.48-1.66.44-.02.85,0,1.23.15-.34.41-.6.77-.79,1.22-.38.89-.71,1.75-.97,2.7-.5,1.84-.87,3.69-1.17,5.59-.92,5.84-1.33,11.74-1.17,17.65.1,3.54.59,7.02,1.47,10.43Z"/>
      <path class="cls-1" d="M56.84,27.16l.29-10.17c-1.18,1.52-2.4,2.89-3.79,4.16-.67.61-1.36,1.13-2.11,1.6-.13,2.29-.69,4.58-2.1,6.38-1.18,1.5-2.87,2.41-4.78,2.54-2.1.14-3.67-1.35-4.36-3.19-.44-1.18-.77-2.39-.95-3.64-.22-1.52-.03-3.03.25-4.52.18-.99.61-1.82.94-2.74.29-.8.5-1.55,1.18-2.17.89-.81,1.99-1.45,3.22-1.64.24-.04.57,0,.82.02,1.54.08,2.92.83,3.94,1.94,1.27,1.38,1.53,2.86,1.74,4.67,1.83-1.24,3.4-2.65,4.84-4.24.43-.47.84-.94,1.15-1.48.07-.45-.11-.93-.24-1.39.75-.56,1.56-1.05,2.42-1.38.52-.2,1.03.05,1.21.56.15.43.23.91.22,1.39l-.06,2.03c.68-1.34,1.46-2.62,2.42-3.81s2.14-2.3,3.61-2.55c.56-.1,1.08.07,1.5.44,1.12.98,1.36,2.63,1.52,4.04.97-1.99,2.14-4.02,3.95-5.42.97-.75,2.53-1.32,3.6-.52s1.53,2.22,1.68,3.45c.11.87.18,1.71.15,2.6l-.21,5.7c-.02.41.06.82.18,1.18.18.53.69.71,1.21.55.6-.19,1.14-.55,1.57-1.05.77-.88,1.46-1.8,2.01-2.86s1.27-2.07,1.55-3.22c.26-1.05.2-2.12.53-3.19.48-1.57,1.04-3.06,1.95-4.43,1.11-1.67,2.65-3.36,4.7-3.77.58-.12,1.17-.17,1.74,0,.86.26,1.44,1.01,1.6,1.89.19,1.08.02,2.13-.37,3.15-.93,2.45-2.88,4.34-4.66,6.21l-1.63,1.71c.38,1.74,1.64,3.07,3.53,2.95,1.67-.1,2.77-.89,3.93-2.02,2.28-2.22,4.03-5.12,5.59-7.94l.15-5.75c.26-.56,1.39-1.17,2.02-1.28.53-.09,1.06-.08,1.54.13.05.12.04.11.02.22v.1s-.03.09-.03.09v.09s-.03.1-.03.1v.1s-.02.09-.02.09v.09s-.02.1-.02.1l-.17,2.21c0,.09,0,.21.03.08.91-1.96,2.19-3.99,4.13-4.98.25-.13.53-.21.8-.3.69-.22,1.42-.13,2.03.26,1.33.86,1.95,2.89,1.9,4.38l-.13,4.1-.24,3.3c-.04.53,0,1.04.15,1.53.11.38.48.56.87.47.47-.11.88-.41,1.23-.78,1.99-2.1,3.89-6.05,5.01-8.74.14-.34.55-.89.9-.81.45.1.4,1.04.29,1.48-.62,2.37-2.04,5.28-3.31,7.39-.77,1.28-1.68,2.43-2.79,3.41-.67.59-1.43.92-2.32,1-1.58.14-2.95-.91-3.28-2.46-.13-.6-.13-1.19-.09-1.83l.29-4.82c.06-.96.03-1.88-.09-2.83-.06-.47-.19-.93-.4-1.35-.47-.94-1.77-.02-2.24.52-.6.68-1.13,1.41-1.52,2.26-1.95,4.25-1.43,2.45-1.58,7.76l-.06,2.25c0,.36-.01.7-.25,1-.19.23-.58.62-.81.79-.39.29-1.8,1.3-2.31.87l.17-4.07v-.12s.01-.11.01-.11v-.11s.08-2.02.08-2.02l.02-.34v-.13s0-.02-.01,0-.04.08-.05.11c-.99,1.84-2.13,3.57-3.53,5.13-1.6,1.78-3.93,3.79-6.35,4.14-1.65.24-3.28-.32-4.49-1.42-.83-.76-1.42-1.67-1.81-2.71l-.06-.07c-1.03,2.06-2.31,4.14-4.01,5.64-1.14.99-2.59,1.56-4.08,1.43-1.08-.09-1.9-.79-2.19-1.8-.41-1.38-.4-3.45-.35-4.92l.16-4.28c.02-.47-.07-.92-.25-1.33-.26-.57-.93-.79-1.47-.45-.79.5-1.39,1.15-1.89,1.93-.75,1.17-1.24,2.41-1.63,3.74-.82,2.87-.92,4.96-.82,7.96-.5.52-3.09,1.96-3.26.64-.08-.62-.04-1.21.04-1.86.3-2.42.49-4.79.46-7.23,0-.8-.08-2.9-.64-3.43-.28-.27-.74-.3-1.08-.13-.8.38-1.42.96-1.93,1.68s-.87,1.38-1.18,2.16c-.57,1.42-.95,2.86-1.15,4.39-.16,1.2-.2,2.36-.25,3.56-.03.69-.04,1.33,0,2.05l-1.78,1.27c-.19.14-.45.25-.67.31-.38.1-.72-.09-.9-.43s-.28-.77-.26-1.25ZM90.37,12.06c.62-.68,1.15-1.35,1.66-2.09.7-1.09,1.42-2.62.87-3.9-.2-.47-.71-.64-1.18-.41-.95.47-1.62,1.71-1.99,2.69-.64,1.69-.89,3.47-.8,5.27l1.44-1.57ZM48.23,21.82c.14-1.55-.14-3.1-.83-4.49-.32-.63-.99-1.61-1.8-1.47-1.18.21-1.97,1.2-2.49,2.21-.08.65.34,1.99.61,2.58.84,1.81,2.88,1.82,4.52,1.18ZM48.06,24.39c-.5.16-.93.27-1.42.36-.96.13-1.89-.03-2.72-.52-.8-.45-1.42-1.06-1.98-1.8-.17,1.93-.04,3.26.61,5.04.38.87,1.11,1.86,2.18,1.73,2.19-.27,3.09-2.9,3.34-4.81Z"/>
      <path class="cls-1" d="M103.75,44.4l-.02-1.65c-.85.03-1.64.13-2.47.27-.06.01-.26-.05-.22-.1l.68-.73-1.94-1.16c-.11-.07-.12-.44,0-.49l.4-.13-.4-.69c-.12-.2-.08-.56-.03-.78l1.1.27.03-1.08c.38.17,1.36,1.34,1.59,1.13-.03-.98-.25-1.68-.34-2.77l1.02.37.69-1.41s.12-.14.17-.16.14.09.16.14l.69,1.42,1.04-.36-.33,2.26c-.03.19-.01.35.02.58.61-.28.96-.86,1.56-1.19v1.07s1.19-.27,1.19-.27c.02.16.04.47,0,.62l-.52.86.49.14c.03.07.04.26.03.4l-2.07,1.24c.03.16,1.08.94.52.85-.81-.12-1.67-.25-2.53-.28v1.54c-.01.1-.1.24-.17.27-.08.03-.34-.04-.34-.15Z"/>
      <path class="cls-2" d="M61.69,45.23c-.25.03-.47.03-.73.01l-2.5-8.18.04,2.93v5.27s-.87-.02-.87-.02v-10.94c.23-.02.42-.02.65,0l2.67,8.39-.07-3.97v-4.43s.81,0,.81,0v10.93Z"/>
      <path class="cls-2" d="M114.26,44.35c0,.34.04.6.11.9h-.92c-.05-.26-.11-.5-.11-.76v-2.85c-.01-.4-.03-.78-.08-1.18-.03-.27-.24-.5-.53-.52l-1.36-.09v5.41s-.93,0-.93,0v-10.97s2.17.01,2.17.01c.38,0,.74.13,1.06.31.28.29.46.63.51,1.04.11.92.31,3.57-.91,3.83.34.1.58.3.68.63.34,1.14.3,2.94.3,4.24ZM113.24,38.53c.13-.95.13-1.9.01-2.83-.05-.38-.31-.64-.68-.64h-1.2s0,4.16,0,4.16h1.16c.37,0,.66-.27.71-.69Z"/>
      <polygon class="cls-2" points="74.25 45.24 73.32 45.25 73.32 39.73 71.31 39.74 71.31 45.25 70.38 45.25 70.38 34.29 71.31 34.29 71.31 39.04 73.32 39.03 73.32 34.29 74.24 34.29 74.25 45.24"/>
      <path class="cls-2" d="M96.4,44.26c.38-.7.27-2.43.3-3.31h.93c-.02,1.16.11,2.79-.5,3.79-.31.51-.9.65-1.46.64-.79,0-1.42-.45-1.62-1.22-.15-.58-.24-1.18-.24-1.81v-5.32c0-.56.08-1.08.21-1.6.19-.78.85-1.28,1.66-1.28,1.09,0,1.71.43,1.86,1.57.12.93.12,1.82.1,2.76h-.93c-.06-.92.16-2.76-.42-3.38-.2-.21-.51-.22-.78-.14-.68.19-.76,1.46-.76,2.08v5.26c0,.57.05,1.11.17,1.64.07.34.32.61.59.66.35.07.72.01.91-.33Z"/>
      <path class="cls-2" d="M89.05,43.03h-2.19s-.33,2.22-.33,2.22h-.88s1.76-10.96,1.76-10.96h.95s1.95,10.94,1.95,10.94l-.89.03-.37-2.23ZM88.93,42.25l-1.02-6.18-.93,6.19h1.95Z"/>
      <path class="cls-2" d="M81.72,34.31c.31-.03.58-.03.89,0l-1.77,10.95h-.97s-1.95-10.95-1.95-10.95h.89s1.54,8.9,1.54,8.9l1.36-8.89Z"/>
      <path class="cls-2" d="M97.9,54.81c-.16.06-.34.06-.56.05l-1.44-4.4.02,4.4h-.71s0-6.49,0-6.49c.18-.03.35-.03.58-.02l1.5,4.37-.06-4.38.67.02v6.46Z"/>
      <path class="cls-2" d="M53.22,45.24l-.93.02v-10.95c.3-.02.6-.02.93-.01v10.94Z"/>
      <path class="cls-2" d="M108.72,53.08c0,.82-.22,1.77-1.16,1.77h-1.38s0-6.5,0-6.5c.48-.01.94-.01,1.41,0,.89.03,1.12.89,1.12,1.63v3.1ZM107.94,53.35v-3.59c0-.25-.1-.58-.3-.72s-.47-.1-.71-.08v5.26c.25.02.55.07.75-.09s.26-.5.26-.78Z"/>
      <path class="cls-2" d="M85.3,53.16c0,.45.02,1.13.52,1.13.71,0,.44-1.52.51-2.06h.75c-.01.99.19,2.71-1.23,2.71-.53,0-.98-.24-1.14-.78-.1-.33-.17-.7-.17-1.06v-3.24c0-.43.12-.86.36-1.2s.63-.4,1-.39c1.35,0,1.17,1.67,1.17,2.6h-.74c-.06-.45.16-1.85-.4-1.93-.24-.03-.46.07-.53.32-.06.22-.1.48-.1.73v3.18Z"/>
      <path class="cls-2" d="M91.65,53.62h-1.17s-.18,1.24-.18,1.24h-.72s.99-6.52.99-6.52h.92s1.08,6.51,1.08,6.51h-.72s-.19-1.23-.19-1.23ZM91.56,52.98l-.52-3.45-.48,3.47h1Z"/>
      <path class="cls-2" d="M102.63,53.62h-1.17s-.18,1.24-.18,1.24h-.72s.99-6.52.99-6.52h.92s1.08,6.51,1.08,6.51h-.72s-.19-1.23-.19-1.23ZM102.54,52.98l-.52-3.45-.48,3.47h1Z"/>
      <path class="cls-2" d="M113.36,53.61h-1.18s-.17,1.24-.17,1.24h-.73s.99-6.52.99-6.52h.92s1.07,6.5,1.07,6.5l-.72.03-.19-1.25ZM113.27,52.98l-.52-3.45-.48,3.46h1Z"/>
    </g>
  </g>
</svg>